# xmcd CD database file
#
# Track frame offsets:
#	150
#	66450
#	137937
#	216350
#
# Disc length: 3693 seconds
#
# Revision: 0
# Processed by: cddbd v1.5.1PL0 Copyright (c) Steve Scherf et al.
# Submitted via: CDex 1.51
#
DISCID=430e6b04
DTITLE=Charlie Parker - Jam Session
DYEAR=1952
DGENRE=Jazz
TTITLE0=J.A.T.P. Blues
TTITLE1=What Is This Thing Called Love?
TTITLE2=Ballad Medley: All the Things You Are - Dearly Beloved - The Nearness of Yo
TTITLE3=Funky Blues
EXTD=YEAR: 1952
EXTT0=
EXTT1=
EXTT2=
EXTT3=
PLAYORDER=
